<svg width="114" height="106" xmlns="http://www.w3.org/2000/svg" fill="none">

 <g>
  <title>Layer 1</title>
  <path id="svg_1" stroke-linejoin="round" stroke-linecap="round" stroke-width="2" stroke="black" d="m61.75,61.7505l-40.5,0c-5.3706,0 -10.5213,2.1335 -14.31891,5.9311c-3.79762,3.7976 -5.93109,8.9483 -5.93109,14.3189l0,10.125"/>
  <path id="svg_2" stroke-linejoin="round" stroke-linecap="round" stroke-width="2" stroke="black" d="m41.5,41.5c11.1838,0 20.25,-9.0662 20.25,-20.25c0,-11.1838 -9.0662,-20.25 -20.25,-20.25c-11.1838,0 -20.25,9.0662 -20.25,20.25c0,11.1838 9.0662,20.25 20.25,20.25z"/>
  <path id="svg_3" stroke-width="1.5" stroke="white" fill="#39d5ff" d="m112.751,79.75c0,14.069 -11.642,25.5 -26.0356,25.5c-14.3935,0 -26.0357,-11.431 -26.0357,-25.5c0,-14.069 11.6422,-25.5 26.0357,-25.5c14.3936,0 26.0356,11.431 26.0356,25.5z"/>
  <path id="svg_4" stroke-linecap="round" stroke-width="2" stroke="black" d="m87.3145,67.4285l0,23.5714"/>
  <path id="svg_5" stroke-linecap="round" stroke-width="2" stroke="black" d="m76,79.6863l23.5714,0"/>
 </g>
</svg>