<svg width="100" height="96" xmlns="http://www.w3.org/2000/svg" fill="none">

 <g>
  <title>Layer 1</title>
  <path id="svg_1" fill="#39d5ff" d="m95.679,55.496c-1.1898,-1.2186 -2.6025,-2.1853 -4.1575,-2.8448c-1.5549,-0.6595 -3.2215,-0.999 -4.9046,-0.999c-1.6831,0 -3.3497,0.3395 -4.90459,0.999c-1.5549,0.6595 -2.96761,1.6262 -4.1575,2.8448l-1.75401,1.7956c-0.3923,0.4016 -1.0383,0.4016 -1.4306,0l-1.7541,-1.7956c-2.4034,-2.4603 -5.66309,-3.8425 -9.0621,-3.8425c-3.3989,0 -6.6587,1.3822 -9.0621,3.8425c-2.4034,2.4603 -3.7536,5.7973 -3.7536,9.2767c0,3.4794 1.3502,6.8163 3.7536,9.2766l2.4694,2.5279l17.4089,17.821c0.3923,0.4016 1.0383,0.4016 1.4306,0l17.40891,-17.821l2.4693,-2.5279c1.1904,-1.218 2.1348,-2.6642 2.779,-4.2559c0.6443,-1.59171 0.9759,-3.29781 0.9759,-5.02071c0,-1.723 -0.3316,-3.429 -0.9759,-5.0208c-0.6442,-1.5917 -1.5886,-3.0379 -2.779,-4.2559z"/>
  <path id="svg_2" stroke-width="1.5" stroke="black" d="m97.4755,40.6811l-45.7566,-38.50894c-1.491,-1.25478 -3.6692,-1.25256 -5.1576,0.00526l-44.14318,37.30518c-0.89933,0.76 -1.41812,1.8777 -1.41812,3.0552l0,48.519c0,2.2091 1.79086,4 4,4l44.1379,0"/>
 </g>
</svg>