<svg width="102" height="102" xmlns="http://www.w3.org/2000/svg" fill="none">

 <g>
  <title>Layer 1</title>
  <path id="svg_2" stroke-linejoin="round" stroke-linecap="round" stroke-width="1.6" stroke="black" d="m101,46.4286l0,4.6c-0.006,10.7821 -3.4975,21.2734 -9.9534,29.9091c-6.4558,8.6358 -15.5302,14.9533 -25.8698,18.0104c-10.3397,3.0569 -21.3905,2.6899 -31.50451,-1.0466c-10.1139,-3.7366 -18.749,-10.6424 -24.6175,-19.6876c-5.86847,-9.0451 -8.65584,-19.745 -7.94642,-30.5037c0.70943,-10.7588 4.87765,-21 11.88302,-29.1962c7.0054,-8.1963 16.4725,-13.90847 26.9895,-16.28465c10.517,-2.37618 21.5204,-1.28905 31.3691,3.09927"/>
  <circle id="svg_1" fill="#39d5ff" r="20.5128" cy="53.3077" cx="51.255"/>
  <path id="svg_3" stroke-linejoin="round" stroke-linecap="round" stroke-width="1.6" stroke="black" d="m101,11.0291l-50,50.0499l-15,-15"/>
 </g>
</svg>