<svg width="295" height="19" xmlns="http://www.w3.org/2000/svg" fill="none">

 <g>
  <title>Layer 1</title>
  <path id="svg_1" stroke-linecap="round" stroke-width="3" stroke="#39d5ff" d="m2,12.2447c29.9843,0 60.06,-2.67151 89.8521,-5.59933c12.85191,-1.26306 25.6889,-2.70647 38.49091,-4.35503c3.14,-0.40443 1.00999,-0.36942 -0.366,0c-4.855,1.3029 -9.36201,4.10656 -14.03001,5.88212c-6.459,2.45704 -15.164,3.70454 -20.8619,7.57884c-2.6382,1.7939 6.4979,1.1982 9.7599,0.9615c23.152,-1.68 46.183,-4.0863 69.112,-7.52228c12.205,-1.82884 24.332,-4.07774 36.539,-5.88212c3.74899,-0.55411 -5.95601,0.81926 -6.71001,1.01806c-4.343,1.14452 -7.765,3.22193 -11.651,5.20341c-3.368,1.71773 0.35301,0.69523 3.11101,0.62213c32.2,-0.85301 64.86499,-3.50045 96.745,-7.86166c3.76801,-0.51543 -4.125,1.35026 -5.612,1.80989"/>
 </g>
</svg>