<svg width="327" height="18" xmlns="http://www.w3.org/2000/svg" fill="none">

 <g>
  <title>Layer 1</title>
  <path id="svg_1" stroke-linecap="round" stroke-width="3" stroke="#39d5ff" d="m1,15.1456c35.946,-0.633 72.8463,-5.73712 107.891,-11.7993c8.35,-1.44443 -10.4102,9.6384 -12.8602,11.2265c-2.9809,1.9323 -0.0413,1.4405 2.7664,1.1456c16.85979,-1.7707 33.5928,-4.0841 50.2448,-6.75883c13.92499,-2.23682 27.91399,-4.09431 41.87,-6.18606c1.978,-0.29649 8.366,-2.07157 4.636,1.03101c-3.769,3.13494 -7.55501,8.95628 -12.11301,11.28378c-0.87,0.4446 2.026,0.6041 3.06601,0.5155c18.976,-1.6152 37.85899,-3.3744 56.74899,-5.5559c16.14999,-1.86517 31.85901,-3.37995 48.00101,-4.41047c10.85199,-0.69276 22.177,-0.83915 32.74899,-2.86392"/>
 </g>
</svg>