<svg width="350" height="19" xmlns="http://www.w3.org/2000/svg" fill="none">

 <g>
  <title>Layer 1</title>
  <path id="svg_1" stroke-linecap="round" stroke-width="3" stroke="#39d5ff" d="m2,12.2447c35.6514,0 71.4116,-2.67151 106.835,-5.59933c15.281,-1.26306 30.544,-2.70647 45.76501,-4.35503c3.73399,-0.40443 1.20099,-0.36942 -0.43501,0c-5.77199,1.3029 -11.13199,4.10656 -16.68199,5.88212c-7.68001,2.45704 -18.03,3.70454 -24.804,7.57884c-3.137,1.7939 7.726,1.1982 11.604,0.9615c27.52801,-1.68 54.91201,-4.0863 82.175,-7.52228c14.511,-1.82884 28.93001,-4.07774 43.444,-5.88212c4.45801,-0.55411 -7.08099,0.81926 -7.978,1.01806c-5.164,1.14452 -9.233,3.22193 -13.853,5.20341c-4.005,1.71773 0.42,0.69523 3.69901,0.62213c38.286,-0.85301 77.12498,-3.50045 115.03099,-7.86166c4.48001,-0.51543 -4.905,1.35026 -6.673,1.80989"/>
 </g>
</svg>