<svg width="365" height="24" xmlns="http://www.w3.org/2000/svg" fill="none">

 <g>
  <title>Layer 1</title>
  <path id="svg_1" stroke-linecap="round" stroke-width="3" stroke="#39d5ff" d="m2,22c6.04141,0 12.2414,-1.002 18.227,-1.6055c25.6884,-2.5904 51.8081,-5.6217 76.8599,-11.68177c0.0738,-0.01783 12.8531,-4.42643 7.7861,-2.04845c-5.3426,2.50729 -10.9975,6.10562 -14.5106,10.68522c-4.2075,5.4847 10.52061,1.713 12.26961,1.4394c22.409,-3.5054 44.44899,-8.5141 66.95,-11.62635c1.024,-0.14163 13.16,-2.83711 10.146,-0.44291c-3.437,2.72966 -6.174,6.14516 -9.79199,8.69206c-5.369,3.7795 13.461,-0.0039 20.114,-0.8304c22.627,-2.8108 44.619,-8.7576 67.24501,-11.51565c3.10599,-0.3786 10.358,-2.43573 4.83698,0.4429c-4.10599,2.14144 -8.58299,6.62415 -11.44299,10.07615c-2.74399,3.3117 1.51801,2.4905 4.36501,2.6575c21.40901,1.2558 42.757,-2.9217 63.82399,-5.9793c14.815,-2.15028 30.129,-4.20762 44.12201,-4.20762"/>
 </g>
</svg>