<svg width="231" height="18" xmlns="http://www.w3.org/2000/svg" fill="none">

 <g>
  <title>Layer 1</title>
  <path id="svg_1" stroke-linecap="round" stroke-width="3" stroke="#39d5ff" d="m229,2.85438c-25.26199,0.63304 -51.19501,5.73714 -75.82401,11.79932c-5.86899,1.4444 7.31601,-9.63841 9.03801,-11.22654c2.095,-1.93229 0.02899,-1.44045 -1.94501,-1.14556c-11.84799,1.77068 -23.608,4.08413 -35.311,6.75883c-9.786,2.23687 -19.618,4.09427 -29.4256,6.18607c-1.39021,0.2965 -5.8794,2.0716 -3.2579,-1.031c2.6489,-3.135 5.3096,-8.95627 8.5125,-11.28384c0.612,-0.44456 -1.4236,-0.60401 -2.1544,-0.51551c-13.336,1.61522 -26.6071,3.37444 -39.8826,5.556c-11.3499,1.86512 -22.3901,3.37995 -33.7347,4.41045c-7.6263,0.6927 -15.58532,0.8391 -23.0153,2.8639"/>
 </g>
</svg>