<svg width="258" height="18" xmlns="http://www.w3.org/2000/svg" fill="none">

 <g>
  <title>Layer 1</title>
  <path id="svg_1" stroke-linecap="round" stroke-width="3" stroke="#39d5ff" d="m2,15.1456c28.2671,-0.633 57.2847,-5.73712 84.843,-11.7993c6.5663,-1.44443 -8.1863,9.6384 -10.1129,11.2265c-2.3441,1.9323 -0.0325,1.4405 2.1754,1.1456c13.2579,-1.7707 26.4165,-4.0841 39.5115,-6.75883c10.95,-2.23682 21.951,-4.09431 32.926,-6.18606c1.55499,-0.29649 6.578,-2.07157 3.645,1.03101c-2.964,3.13494 -5.94101,8.95628 -9.52501,11.28378c-0.685,0.4446 1.593,0.6041 2.411,0.5155c14.92201,-1.6152 29.77101,-3.3744 44.62601,-5.5559c12.7,-1.86517 25.05299,-3.37995 37.74699,-4.41047c8.53401,-0.69276 17.43901,-0.83915 25.75301,-2.86392"/>
 </g>
</svg>