<svg width="280" height="21" xmlns="http://www.w3.org/2000/svg" fill="none">

 <g>
  <title>Layer 1</title>
  <path id="svg_1" stroke-linecap="round" stroke-width="3" stroke="#39d5ff" d="m2,13.7384c9.3639,2.0167 24.1561,-1.7295 33.1947,-3.3734c11.0235,-2.00485 22.0301,-3.66371 33.19481,-5.24753c2.57729,-0.36562 7.8781,-1.95277 5.38589,0.97454c-3.0973,3.63803 -7.3994,6.72349 -10.0024,10.56999c-2.4755,3.658 2.4088,2.0765 6.0454,1.4993c22.4194,-3.5581 44.8886,-6.8416 67.59861,-9.44553c1.937,-0.22213 20.03499,-3.53197 23.19199,-1.57426c1.10701,0.68635 -5.78099,4.61469 -6.265,4.87269c-2.29999,1.2253 -4.715,2.6838 -7.254,3.6733c-2.942,1.1464 6.65201,-0.8869 9.94701,-1.4244c15.245,-2.4862 29.91899,-6.1561 44.791,-9.48297c0.83499,-0.18682 17.384,-3.17493 17.092,-2.73621c-1.114,1.6709 -13.864,11.51748 -10.772,11.95688c9.40901,1.3369 22.98401,-2.5231 31.87601,-4.01063c12.597,-2.10734 25.14799,-4.35136 37.976,-5.69731"/>
 </g>
</svg>