<svg width="244" height="18" xmlns="http://www.w3.org/2000/svg" fill="none">

 <g>
  <title>Layer 1</title>
  <path id="svg_1" stroke-linecap="round" stroke-width="3" stroke="#39d5ff" d="m2,15c26.7091,-0.614 54.1273,-5.56458 80.1667,-11.44444c6.2043,-1.40098 -7.7352,9.34854 -9.5556,10.88894c-2.2149,1.8741 -0.0307,1.3971 2.0556,1.1111c12.5271,-1.7175 24.9607,-3.9613 37.3333,-6.55559c10.347,-2.16955 20.742,-3.97117 31.11099,-6c1.47,-0.28759 6.216,-2.00928 3.44501,1c-2.80099,3.04065 -5.614,8.68689 -9,10.94449c-0.647,0.4311 1.505,0.5858 2.27699,0.5c14.10001,-1.5667 28.13101,-3.273 42.16701,-5.3889c12,-1.80907 23.672,-3.27829 35.66701,-4.27782c8.06299,-0.67191 16.478,-0.8139 24.33299,-2.77777"/>
 </g>
</svg>