<svg width="269" height="18" xmlns="http://www.w3.org/2000/svg" fill="none">

 <g>
  <title>Layer 1</title>
  <path id="svg_1" stroke-linecap="round" stroke-width="3" stroke="#39d5ff" d="m2,15.1456c29.4913,-0.633 59.7656,-5.73712 88.5174,-11.7993c6.85059,-1.44443 -8.5409,9.6384 -10.551,11.2265c-2.4456,1.9323 -0.0339,1.4405 2.2697,1.1456c13.832,-1.7707 27.5609,-4.0841 41.2219,-6.75883c11.425,-2.23682 22.902,-4.09431 34.352,-6.18606c1.623,-0.29649 6.864,-2.07157 3.80301,1.03101c-3.09201,3.13494 -6.19801,8.95628 -9.93701,11.28378c-0.71399,0.4446 1.662,0.6041 2.515,0.5155c15.56801,-1.6152 31.061,-3.3744 46.55901,-5.5559c13.25,-1.86517 26.138,-3.37995 39.382,-4.41047c8.903,-0.69276 18.19398,-0.83915 26.868,-2.86392"/>
 </g>
</svg>