<svg width="405" height="19" xmlns="http://www.w3.org/2000/svg" fill="none">

 <g>
  <title>Layer 1</title>
  <path id="svg_1" stroke-linecap="round" stroke-width="3" stroke="#39d5ff" d="m2,12.2447c41.3185,0 82.7631,-2.67151 123.817,-5.59933c17.70999,-1.26306 35.39999,-2.70647 53.03999,-4.35503c4.328,-0.40443 1.39301,-0.36942 -0.504,0c-6.689,1.3029 -12.901,4.10656 -19.33299,5.88212c-8.901,2.45704 -20.89601,3.70454 -28.748,7.57884c-3.636,1.7939 8.955,1.1982 13.44899,0.9615c31.90401,-1.68 63.64101,-4.0863 95.237,-7.52228c16.81801,-1.82884 33.53001,-4.07774 50.351,-5.88212c5.16602,-0.55411 -8.207,0.81926 -9.246,1.01806c-5.98499,1.14452 -10.70099,3.22193 -16.05499,5.20341c-4.642,1.71773 0.48502,0.69523 4.28702,0.62213c44.37198,-0.85301 89.38397,-3.50045 133.31497,-7.86166c5.19202,-0.51543 -5.68399,1.35026 -7.73297,1.80989"/>
 </g>
</svg>