<svg width="303" height="18" xmlns="http://www.w3.org/2000/svg" fill="none">

 <g>
  <title>Layer 1</title>
  <path id="svg_1" stroke-linecap="round" stroke-width="3" stroke="#39d5ff" d="m2,15.1456c33.2751,-0.633 67.4336,-5.73712 99.874,-11.7993c7.73,-1.44443 -9.6364,9.6384 -11.9043,11.2265c-2.75951,1.9323 -0.03831,1.4405 2.5608,1.1456c15.6065,-1.7707 31.0965,-4.0841 46.51151,-6.75883c12.89,-2.23682 25.84,-4.09431 38.75899,-6.18606c1.83101,-0.29649 7.744,-2.07157 4.291,1.03101c-3.489,3.13494 -6.99399,8.95628 -11.21199,11.28378c-0.806,0.4446 1.875,0.6041 2.83699,0.5155c17.56601,-1.6152 35.04701,-3.3744 52.533,-5.5559c14.95,-1.86517 29.492,-3.37995 44.435,-4.41047c10.04501,-0.69276 20.52802,-0.83915 30.315,-2.86392"/>
 </g>
</svg>